<svg xmlns="http://www.w3.org/2000/svg" width="16" height="16" viewBox="0 0 16 16">
  <title>nodes-decimal</title>
  <g>
    <path d="M4.3,11.5H2.9v-5l-.2.2c0,.1-.1.2-.2.3l-.8.6-.6-.9L3.2,5.1H4.3Z" fill="#3574f0"/>
    <path d="M8,6.5a2.38,2.38,0,0,1,1.2.3,2,2,0,0,1,.8.8,2.38,2.38,0,0,1,.3,1.2v.7H7a.91.91,0,0,0,.4.8,1.22,1.22,0,0,0,.9.3,2.77,2.77,0,0,0,.9-.1c.3-.1.5-.2.8-.3v1a6.89,6.89,0,0,1-.8.3,3.08,3.08,0,0,1-1,.1,2.77,2.77,0,0,1-1.3-.3,1.76,1.76,0,0,1-.9-.8,2.9,2.9,0,0,1-.3-1.4A2.65,2.65,0,0,1,6,7.7a1.42,1.42,0,0,1,.8-.9A2.13,2.13,0,0,1,8,6.5Zm0,1a.6.6,0,0,0-.6.3c-.2.1-.3.3-.4.7H8.9A.75.75,0,0,0,8.8,8c0-.2-.2-.3-.3-.4A.75.75,0,0,0,8,7.5Z" fill="#3574f0"/>
    <path d="M14.7,6.5a1.88,1.88,0,0,1-.2.8,1.21,1.21,0,0,1-.5.5,4.88,4.88,0,0,1-.7.3h0a2.2,2.2,0,0,1,1.2.5,1.28,1.28,0,0,1,.4,1,1.69,1.69,0,0,1-.3,1,2.7,2.7,0,0,1-.8.7,3.34,3.34,0,0,1-1.5.3,3.08,3.08,0,0,1-1-.1,3.18,3.18,0,0,1-.9-.3V10.1l.9.3a2.49,2.49,0,0,0,.8.1,1.33,1.33,0,0,0,1-.3.91.91,0,0,0,.3-.7.9.9,0,0,0-.1-.5,1.07,1.07,0,0,0-.5-.3,2.22,2.22,0,0,0-.9-.1h-.5v-1h.5a2.22,2.22,0,0,0,.9-.1,1.38,1.38,0,0,0,.4-.3.6.6,0,0,0,.1-.4.76.76,0,0,0-.2-.5,1.17,1.17,0,0,0-.7-.2,1.27,1.27,0,0,0-.6.1c-.2.1-.3.1-.5.2s-.3.1-.4.2l-.6-.9a2.7,2.7,0,0,1,1.1-.5A3.73,3.73,0,0,1,12.6,5a2.54,2.54,0,0,1,1.6.4A1.17,1.17,0,0,1,14.7,6.5Z" fill="#3574f0"/>
  </g>
</svg>
