<svg xmlns="http://www.w3.org/2000/svg" width="16" height="16" viewBox="0 0 16 16">
  <title>nodes-string</title>
  <g>
    <path d="M5.15,11.9l-.5-1.6H2.35l-.5,1.5H.35l2.3-6.5h1.7l2.3,6.5-1.5.1Zm-.8-2.7-.5-1.5c0-.1-.1-.2-.1-.4s-.1-.3-.1-.5-.1-.3-.1-.4c0,.1-.1.3-.1.4a1.42,1.42,0,0,0-.2.6c0,.2-.1.2-.1.3l-.5,1.5Z" fill="#3574f0"/>
    <path d="M8.15,5V7.5h.1a1.21,1.21,0,0,1,.5-.5,2,2,0,0,1,.9-.2,1.49,1.49,0,0,1,1.3.6,3.31,3.31,0,0,1,.5,1.9,5.21,5.21,0,0,1-.2,1.4,2.18,2.18,0,0,1-.7.9,1.69,1.69,0,0,1-1,.3,2.39,2.39,0,0,1-.9-.2c-.3-.1-.3-.2-.5-.4h-.1l-.2.5h-1V5Zm1,2.9a1.27,1.27,0,0,0-.6.1c-.2.1-.2.3-.3.5a2,2,0,0,0-.1.8v.1a3.09,3.09,0,0,0,.2,1.1c.1.3.4.4.8.4a.75.75,0,0,0,.7-.4,3.09,3.09,0,0,0,.2-1.1,2.68,2.68,0,0,0-.2-1.1A.84.84,0,0,0,9.15,7.9Z" fill="#3574f0"/>
    <path d="M14.05,12a2.13,2.13,0,0,1-1.2-.3,3,3,0,0,1-.8-.8,2.65,2.65,0,0,1-.3-1.4,3.34,3.34,0,0,1,.3-1.5,1.55,1.55,0,0,1,.8-.8,2.77,2.77,0,0,1,1.3-.3,2.77,2.77,0,0,1,.9.1c.2.1.5.1.6.2l-.4,1a1.42,1.42,0,0,0-.6-.2,1.09,1.09,0,0,0-.5-.1,1.42,1.42,0,0,0-.6.2.55.55,0,0,0-.3.5c0,.2-.1.5-.1.8a2,2,0,0,0,.1.8,1,1,0,0,0,.4.5,1.07,1.07,0,0,0,.6.2,1.48,1.48,0,0,0,.7-.1l.6-.3v1.1l-.6.3C14.75,11.9,14.45,12,14.05,12Z" fill="#3574f0"/>
  </g>
</svg>
