<svg xmlns="http://www.w3.org/2000/svg" width="16" height="16" viewBox="0 0 16 16">
    <rect fill="#B1B1B1" x="2" y="3" width="7" height="2"/>
    <rect fill="#B1B1B1" x="2" y="7" width="7" height="2"/>
    <rect fill="#B1B1B1" x="2" y="11" width="7" height="2"/>
    <path fill="#389FD6" d="M12.5,2C11.1,2,10,3.1,10,4.5C10,5.9,11.1,7,12.5,7S15,5.9,15,4.5C15,3.1,13.9,2,12.5,2z M12.5,6C11.7,6,11,5.3,11,4.5S11.7,3,12.5,3S14,3.7,14,4.5S13.3,6,12.5,6z"/>
    <rect fill="#389FD6" x="12" y="6" width="1" height="8"/>
    <path fill="#389FD6" d="M10.5,12c-0.3,0-0.5,0.2-0.5,0.5c0,0.3,0.2,0.5,0.5,0.5H12v-1H10.5z"/>
    <path fill="#389FD6" d="M11.5,10c-0.3,0-0.5,0.2-0.5,0.5c0,0.3,0.2,0.5,0.5,0.5H12v-1H11.5z"/>
</svg>
