<svg xmlns="http://www.w3.org/2000/svg" width="16" height="16" viewBox="0 0 16 16">
    <g fill="#B1B1B1">
        <polygon points="4,6 4,3 4,2 2,2 2,3 3,3 3,6 2,6 2,7 5,7 5,6 "/>
        <path d="M6,2v5h3V2H6z M8,6H7V3h1V6z"/>
        <polygon points="12,6 12,3 12,2 10,2 10,3 11,3 11,6 10,6 10,7 13,7 13,6 "/>
        <polygon points="8,12 8,9 8,8 6,8 6,9 7,9 7,12 6,12 6,13 9,13 9,12 "/>
        <path d="M10,8v5h3V8H10z M12,12h-1V9h1V12z"/>
        <path d="M2,8v5h3V8H2z M4,12H3V9h1V12z"/>
        <polygon points="14,1 14,14 1,14 1,15 15,15 15,14 15,1 "/>
    </g>
</svg>
