<svg xmlns="http://www.w3.org/2000/svg" width="16" height="16" viewBox="0 0 16 16">
	<path fill="#389FD6" d="M4.3,11.2H2.9V7.5c0-0.1,0-0.2,0-0.4c0-0.2,0-0.3,0-0.5c0-0.2,0-0.3,0-0.4c0,0-0.1,0.1-0.2,0.2C2.7,6.5,2.6,6.6,2.5,6.7L1.7,7.3L1.1,6.4l2.1-1.6h1.1V11.2z"/>
	<path fill="#389FD6" d="M8,6.2c0.5,0,0.8,0.1,1.2,0.3c0.3,0.2,0.6,0.4,0.8,0.8s0.3,0.7,0.3,1.2v0.7H7C7,9.5,7.1,9.8,7.4,10c0.2,0.2,0.5,0.3,0.9,0.3c0.3,0,0.6,0,0.9-0.1c0.3-0.1,0.5-0.2,0.8-0.3v1c-0.2,0.1-0.5,0.2-0.8,0.3c-0.3,0.1-0.6,0.1-1,0.1c-0.5,0-0.9-0.1-1.3-0.3S6.2,10.6,6,10.2C5.8,9.8,5.7,9.4,5.7,8.8c0-0.6,0.1-1.1,0.3-1.4C6.1,7,6.4,6.7,6.8,6.5C7.1,6.3,7.5,6.2,8,6.2z M8,7.2c-0.3,0-0.5,0.1-0.6,0.3C7.2,7.6,7.1,7.8,7,8.2h1.9c0-0.2,0-0.4-0.1-0.5C8.8,7.5,8.6,7.4,8.5,7.3C8.4,7.2,8.2,7.2,8,7.2z"/>
	<path fill="#389FD6" d="M14.7,6.2c0,0.3-0.1,0.6-0.2,0.8S14.2,7.4,14,7.5c-0.2,0.1-0.4,0.2-0.7,0.3v0c0.5,0.1,0.9,0.2,1.2,0.5c0.3,0.3,0.4,0.6,0.4,1c0,0.4-0.1,0.7-0.3,1c-0.2,0.3-0.5,0.5-0.8,0.7c-0.4,0.2-0.9,0.3-1.5,0.3c-0.4,0-0.7,0-1-0.1c-0.3-0.1-0.6-0.1-0.9-0.3V9.8c0.3,0.1,0.6,0.2,0.9,0.3c0.3,0.1,0.6,0.1,0.8,0.1c0.5,0,0.8-0.1,1-0.3c0.2-0.2,0.3-0.4,0.3-0.7c0-0.2,0-0.3-0.1-0.5c-0.1-0.1-0.2-0.2-0.5-0.3c-0.2-0.1-0.5-0.1-0.9-0.1h-0.5v-1h0.5c0.4,0,0.7,0,0.9-0.1c0.2-0.1,0.3-0.2,0.4-0.3c0.1-0.1,0.1-0.3,0.1-0.4c0-0.2-0.1-0.4-0.2-0.5s-0.4-0.2-0.7-0.2c-0.2,0-0.4,0-0.6,0.1c-0.2,0.1-0.3,0.1-0.5,0.2c-0.1,0.1-0.3,0.1-0.4,0.2l-0.6-0.9C10.7,5.1,11,5,11.4,4.9c0.3-0.1,0.7-0.2,1.2-0.2c0.7,0,1.2,0.1,1.6,0.4S14.7,5.7,14.7,6.2z"/>
</svg>
