<svg xmlns="http://www.w3.org/2000/svg" width="16" height="16" viewBox="0 0 16 16">
	<path fill="#389FD6" d="M4.4,12.2H3V8.5c0-0.1,0-0.2,0-0.4C3,8,3,7.8,3,7.7c0-0.2,0-0.3,0-0.4c0,0-0.1,0.1-0.2,0.2c-0.1,0-0.1,0.1-0.2,0.2L1.8,8.3L1.2,7.4l2.1-1.6h1.1V12.2z"/>
	<path fill="#389FD6" d="M10.2,12.2H5.7v-0.9l1.6-1.6C7.6,9.3,7.9,9,8.1,8.8c0.2-0.2,0.3-0.4,0.4-0.6C8.6,8,8.7,7.8,8.7,7.6c0-0.3-0.1-0.4-0.2-0.6C8.3,6.9,8.1,6.8,7.9,6.8C7.6,6.8,7.4,6.9,7.2,7S6.7,7.3,6.4,7.5L5.7,6.6c0.2-0.2,0.4-0.3,0.6-0.4C6.5,6,6.7,5.9,7,5.8s0.6-0.1,1-0.1c0.4,0,0.8,0.1,1.1,0.2c0.3,0.2,0.5,0.4,0.7,0.6C9.9,6.8,10,7.1,10,7.4c0,0.4-0.1,0.7-0.2,1C9.7,8.7,9.5,9,9.2,9.3s-0.6,0.6-1,1L7.4,11v0.1h2.8V12.2z"/>
	<path fill="#389FD6" d="M14.6,7.2c0,0.3-0.1,0.6-0.2,0.8c-0.1,0.2-0.2,0.4-0.4,0.5s-0.4,0.2-0.7,0.3l0,0c0.5,0.1,0.9,0.2,1.2,0.5s0.4,0.6,0.4,1s-0.1,0.7-0.3,1s-0.5,0.5-0.8,0.7s-0.9,0.3-1.5,0.3c-0.4,0-0.7,0-1-0.1s-0.6-0.1-0.9-0.3v-1.1c0.3,0.1,0.6,0.2,0.9,0.3c0.3,0.1,0.6,0.1,0.8,0.1c0.5,0,0.8-0.1,1-0.3s0.3-0.4,0.3-0.7c0-0.2,0-0.3-0.1-0.5c-0.1-0.1-0.2-0.2-0.5-0.3c-0.2-0.1-0.5-0.1-0.9-0.1h-0.5v-1h0.5c0.4,0,0.7,0,0.9-0.1c0.2,0,0.3-0.1,0.4-0.2c0.1-0.1,0.1-0.3,0.1-0.4c0-0.2-0.1-0.4-0.2-0.5s-0.4-0.2-0.7-0.2c-0.2,0-0.4,0-0.6,0.1c-0.2,0.1-0.3,0.1-0.5,0.2c-0.1,0.1-0.3,0.1-0.4,0.2l-0.6-0.9c0.3-0.2,0.5-0.3,0.9-0.5c0.3-0.1,0.7-0.2,1.2-0.2c0.7,0,1.2,0.1,1.6,0.4S14.6,6.7,14.6,7.2z"/>
</svg>
