<svg xmlns="http://www.w3.org/2000/svg" width="16" height="16" viewBox="0 0 16 16">
	<path fill="#389FD6" d="M5.1,11.4L4.6,9.8H2.3l-0.5,1.5H0.3l2.3-6.5h1.7l2.3,6.5H5.1z M4.3,8.7L3.8,7.2c0-0.1-0.1-0.2-0.1-0.4c0-0.2-0.1-0.3-0.1-0.5c0-0.2-0.1-0.3-0.1-0.4c0,0.1-0.1,0.3-0.1,0.4C3.3,6.5,3.2,6.7,3.2,6.9S3.1,7.1,3.1,7.2L2.6,8.7H4.3z"/>
	<path fill="#389FD6" d="M8.1,4.5v1.6c0,0.2,0,0.4,0,0.5c0,0.2,0,0.3,0,0.4h0.1c0.1-0.2,0.3-0.4,0.5-0.5c0.2-0.1,0.5-0.2,0.9-0.2c0.6,0,1,0.2,1.3,0.6c0.3,0.4,0.5,1.1,0.5,1.9c0,0.6-0.1,1-0.2,1.4c-0.2,0.4-0.4,0.7-0.7,0.9c-0.3,0.2-0.6,0.3-1,0.3c-0.4,0-0.6-0.1-0.9-0.2S8.3,11,8.1,10.8H8l-0.2,0.5h-1V4.5H8.1z M9.1,7.4c-0.2,0-0.4,0-0.6,0.1S8.3,7.8,8.2,8S8.1,8.5,8.1,8.8v0.1c0,0.5,0.1,0.8,0.2,1.1c0.1,0.3,0.4,0.4,0.8,0.4c0.3,0,0.5-0.1,0.7-0.4C9.9,9.7,10,9.4,10,8.9S9.9,8,9.8,7.8S9.4,7.4,9.1,7.4z"/>
	<path fill="#389FD6" d="M14,11.5c-0.5,0-0.9-0.1-1.2-0.3c-0.3-0.2-0.6-0.5-0.8-0.8s-0.3-0.8-0.3-1.4c0-0.6,0.1-1.1,0.3-1.5c0.2-0.4,0.5-0.7,0.8-0.8c0.4-0.2,0.8-0.3,1.3-0.3c0.3,0,0.6,0,0.9,0.1c0.2,0.1,0.5,0.1,0.6,0.2l-0.4,1c-0.2-0.1-0.4-0.2-0.6-0.2c-0.2-0.1-0.4-0.1-0.5-0.1c-0.2,0-0.4,0.1-0.6,0.2c-0.2,0.1-0.3,0.3-0.3,0.5s-0.1,0.5-0.1,0.8c0,0.3,0,0.6,0.1,0.8s0.2,0.4,0.4,0.5c0.2,0.1,0.3,0.2,0.6,0.2c0.3,0,0.5,0,0.7-0.1c0.2-0.1,0.4-0.2,0.6-0.3v1.1c-0.2,0.1-0.4,0.2-0.6,0.3C14.7,11.4,14.4,11.5,14,11.5z"/>
</svg>
