<svg xmlns="http://www.w3.org/2000/svg" width="16" height="16" viewBox="0 0 16 16">
	<path fill="#389FD6" d="M5.1,12.4l-0.5-1.6H2.3l-0.5,1.5H0.3l2.3-6.5h1.7l2.3,6.5L5.1,12.4L5.1,12.4z M4.3,9.7L3.8,8.2c0-0.1-0.1-0.2-0.1-0.4c0-0.2-0.1-0.3-0.1-0.5S3.5,7,3.5,6.9c0,0.1-0.1,0.3-0.1,0.4C3.3,7.5,3.2,7.7,3.2,7.9S3.1,8.1,3.1,8.2L2.6,9.7H4.3z"/>
	<path fill="#389FD6" d="M8.1,5.5v1.6c0,0.2,0,0.4,0,0.5c0,0.2,0,0.3,0,0.4h0.1c0.1-0.2,0.3-0.4,0.5-0.5s0.5-0.2,0.9-0.2c0.6,0,1,0.2,1.3,0.6s0.5,1.1,0.5,1.9c0,0.6-0.1,1-0.2,1.4c-0.2,0.4-0.4,0.7-0.7,0.9s-0.6,0.3-1,0.3s-0.6-0.1-0.9-0.2S8.3,12,8.1,11.8H8l-0.2,0.5h-1V5.5H8.1z M9.1,8.4c-0.2,0-0.4,0-0.6,0.1S8.3,8.8,8.2,9S8.1,9.5,8.1,9.8v0.1c0,0.5,0.1,0.8,0.2,1.1c0.1,0.3,0.4,0.4,0.8,0.4c0.3,0,0.5-0.1,0.7-0.4c0.1-0.3,0.2-0.6,0.2-1.1S9.9,9,9.8,8.8S9.4,8.4,9.1,8.4z"/>
	<path fill="#389FD6" d="M14,12.5c-0.5,0-0.9-0.1-1.2-0.3s-0.6-0.5-0.8-0.8s-0.3-0.8-0.3-1.4c0-0.6,0.1-1.1,0.3-1.5s0.5-0.7,0.8-0.8c0.4-0.2,0.8-0.3,1.3-0.3c0.3,0,0.6,0,0.9,0.1c0.2,0.1,0.5,0.1,0.6,0.2l-0.4,1c-0.2-0.1-0.4-0.2-0.6-0.2c-0.2-0.1-0.4-0.1-0.5-0.1c-0.2,0-0.4,0.1-0.6,0.2c-0.2,0.1-0.3,0.3-0.3,0.5s-0.1,0.5-0.1,0.8s0,0.6,0.1,0.8s0.2,0.4,0.4,0.5s0.3,0.2,0.6,0.2s0.5,0,0.7-0.1s0.4-0.2,0.6-0.3v1.1c-0.2,0.1-0.4,0.2-0.6,0.3C14.7,12.4,14.4,12.5,14,12.5z"/>
</svg>
