<svg xmlns="http://www.w3.org/2000/svg" width="16" height="16" viewBox="0 0 16 16">
	<path fill="#389FD6" d="M4.3,12.2H2.9V8.5c0-0.1,0-0.2,0-0.4c0-0.2,0-0.3,0-0.5s0-0.3,0-0.4c0,0-0.1,0.1-0.2,0.2c0,0.1-0.1,0.2-0.2,0.3L1.7,8.3L1.1,7.4l2.1-1.6h1.1C4.3,5.8,4.3,12.2,4.3,12.2z"/>
	<path fill="#389FD6" d="M8,7.2c0.5,0,0.8,0.1,1.2,0.3C9.5,7.7,9.8,7.9,10,8.3c0.2,0.4,0.3,0.7,0.3,1.2v0.7H7c0,0.3,0.1,0.6,0.4,0.8c0.2,0.2,0.5,0.3,0.9,0.3c0.3,0,0.6,0,0.9-0.1c0.3-0.1,0.5-0.2,0.8-0.3v1c-0.2,0.1-0.5,0.2-0.8,0.3s-0.6,0.1-1,0.1c-0.5,0-0.9-0.1-1.3-0.3S6.2,11.6,6,11.2c-0.2-0.4-0.3-0.8-0.3-1.4c0-0.6,0.1-1.1,0.3-1.4C6.1,8,6.4,7.7,6.8,7.5C7.1,7.3,7.5,7.2,8,7.2z M8,8.2c-0.3,0-0.5,0.1-0.6,0.3C7.2,8.6,7.1,8.8,7,9.2h1.9c0-0.2,0-0.4-0.1-0.5c0-0.2-0.2-0.3-0.3-0.4C8.4,8.2,8.2,8.2,8,8.2z"/>
	<path fill="#389FD6" d="M14.7,7.2c0,0.3-0.1,0.6-0.2,0.8c-0.1,0.2-0.3,0.4-0.5,0.5s-0.4,0.2-0.7,0.3l0,0c0.5,0.1,0.9,0.2,1.2,0.5s0.4,0.6,0.4,1s-0.1,0.7-0.3,1s-0.5,0.5-0.8,0.7c-0.4,0.2-0.9,0.3-1.5,0.3c-0.4,0-0.7,0-1-0.1s-0.6-0.1-0.9-0.3v-1.1c0.3,0.1,0.6,0.2,0.9,0.3c0.3,0.1,0.6,0.1,0.8,0.1c0.5,0,0.8-0.1,1-0.3s0.3-0.4,0.3-0.7c0-0.2,0-0.3-0.1-0.5c-0.1-0.1-0.2-0.2-0.5-0.3c-0.2-0.1-0.5-0.1-0.9-0.1h-0.5v-1h0.5c0.4,0,0.7,0,0.9-0.1C13,8.1,13.1,8,13.2,7.9c0.1-0.1,0.1-0.3,0.1-0.4c0-0.2-0.1-0.4-0.2-0.5s-0.4-0.2-0.7-0.2c-0.2,0-0.4,0-0.6,0.1C11.6,7,11.5,7,11.3,7.1c-0.1,0.1-0.3,0.1-0.4,0.2l-0.6-0.9C10.7,6.1,11,6,11.4,5.9c0.3-0.1,0.7-0.2,1.2-0.2c0.7,0,1.2,0.1,1.6,0.4S14.7,6.7,14.7,7.2z"/>
</svg>
