<svg xmlns="http://www.w3.org/2000/svg" width="16" height="16" viewBox="0 0 16 16">
  <title>nodes-integer</title>
  <g>
    <path d="M4.2,11.5H2.8V6.6l-.2.2c-.1,0-.1.1-.2.2l-.8.6L1,6.7,3.1,5.1H4.2Z" fill="#3574f0"/>
    <path d="M10,11.5H5.5v-.9L7.1,9a8.18,8.18,0,0,1,.8-.9,2.09,2.09,0,0,0,.4-.6,1.42,1.42,0,0,0,.2-.6,1.07,1.07,0,0,0-.2-.6,1.42,1.42,0,0,0-.6-.2,1.45,1.45,0,0,0-.7.2,9.22,9.22,0,0,0-.8.5l-.7-.9a2.09,2.09,0,0,1,.6-.4,1.61,1.61,0,0,1,.7-.4,3.08,3.08,0,0,1,1-.1,3.59,3.59,0,0,1,1.1.2,4.35,4.35,0,0,1,.7.6,2.92,2.92,0,0,1,.2.9,3,3,0,0,1-.2,1,2.36,2.36,0,0,1-.6.9l-1,1-.8.7v.1H10Z" fill="#3574f0"/>
    <path d="M14.4,6.5a1.88,1.88,0,0,1-.2.8,1,1,0,0,1-.4.5,4.88,4.88,0,0,1-.7.3h0a2.2,2.2,0,0,1,1.2.5,1.28,1.28,0,0,1,.4,1,1.69,1.69,0,0,1-.3,1,2.7,2.7,0,0,1-.8.7,3.06,3.06,0,0,1-1.5.3,3.08,3.08,0,0,1-1-.1,3.18,3.18,0,0,1-.9-.3V10.1l.9.3a2.49,2.49,0,0,0,.8.1,1.33,1.33,0,0,0,1-.3.91.91,0,0,0,.3-.7.9.9,0,0,0-.1-.5,1.07,1.07,0,0,0-.5-.3,2.22,2.22,0,0,0-.9-.1h-.5v-1h.5a2.22,2.22,0,0,0,.9-.1.52.52,0,0,0,.4-.2.6.6,0,0,0,.1-.4.76.76,0,0,0-.2-.5,1.17,1.17,0,0,0-.7-.2,1.27,1.27,0,0,0-.6.1c-.2.1-.3.1-.5.2s-.3.1-.4.2l-.6-.9a7.26,7.26,0,0,1,.9-.5,3.73,3.73,0,0,1,1.2-.2,2.54,2.54,0,0,1,1.6.4C14.2,5.8,14.4,6,14.4,6.5Z" fill="#3574f0"/>
  </g>
</svg>
