<svg xmlns="http://www.w3.org/2000/svg" width="16" height="16" viewBox="0 0 16 16">
  <title>nodes-uuid</title>
  <g>
    <line x1="1.5" y1="5.5" x2="8.5" y2="5.5" fill="none" stroke="#6c707e" stroke-linecap="round"/>
    <line x1="1.5" y1="8" x2="9.5" y2="8" fill="none" stroke="#6c707e" stroke-linecap="round"/>
    <line x1="1.5" y1="10.5" x2="8.5" y2="10.5" fill="none" stroke="#6c707e" stroke-linecap="round"/>
    <path d="M12,2A2.48,2.48,0,0,0,9.5,4.5a2.5,2.5,0,0,0,5,0A2.48,2.48,0,0,0,12,2Zm0,4a1.54,1.54,0,0,1-1.5-1.5,1.5,1.5,0,0,1,3,0A1.54,1.54,0,0,1,12,6Z" fill="#3574f0"/>
    <rect x="11.5" y="6" width="1" height="8" fill="#3574f0"/>
    <path d="M10,12a.5.5,0,0,0,0,1h1.5V12Z" fill="#3574f0"/>
    <path d="M11,10a.5.5,0,0,0,0,1h.5V10Z" fill="#3574f0"/>
  </g>
</svg>
