<svg xmlns="http://www.w3.org/2000/svg" width="16" height="16" viewBox="0 0 16 16">
  <title>actions-edit_modal</title>
  <g>
    <polyline points="3 5 3 3 13 3 13 5" fill="#ebecf0"/>
    <g>
      <polyline points="13.43 10.54 9.48 14.5 7.5 14.5 7.5 12.52 11.46 8.57" fill="none" stroke="#6c707e" stroke-miterlimit="10"/>
      <path d="M11.46,8.57l1.27-1.28a1,1,0,0,1,1.41,0l.57.57a1,1,0,0,1,0,1.41l-1.28,1.27Z" fill="#ebecf0" stroke="#6c707e" stroke-miterlimit="10"/>
    </g>
    <path d="M13.5,6V3.5a1,1,0,0,0-1-1h-9a1,1,0,0,0-1,1v8a1,1,0,0,0,1,1H6" fill="none" stroke="#6c707e" stroke-miterlimit="10"/>
    <line x1="3" y1="5.5" x2="13" y2="5.5" fill="none" stroke="#6c707e" stroke-miterlimit="10"/>
  </g>
</svg>
