<!-- Taken from the Blender project (https://github.com/blender/blender). Licensed under GPL-3.0 -->
<svg xmlns="http://www.w3.org/2000/svg" width="16" height="16" viewBox="0 0 16 16">
	<path fill="#6E6E6E" d="M6.8,6L1.5,6C1.2,6,1,6.2,1,6.5v8C1,14.8,1.2,15,1.5,15h8c0.3,0,0.5-0.2,0.5-0.5l0-4c0-0.3-0.2-0.5-0.5-0.5S9,10.2,9,10.5c0,0,0,0,0,0L9,14H2V7l4.8,0C7,7,7.3,6.8,7.3,6.5C7.3,6.2,7,6,6.8,6C6.8,6,6.8,6,6.8,6z"/>
	<path fill="#389FD6" d="M9.5,1C9.2,1,9,1.2,9,1.5v0v4.6C8.4,6.3,8,6.9,8,7.5C8,8.3,8.7,9,9.5,9c0.4,0,0.7-0.1,1-0.4l3.8,2.3c0.2,0.1,0.5,0.1,0.7-0.2s0.1-0.5-0.2-0.7c0,0,0,0,0,0L11,7.8c0-0.1,0-0.2,0-0.3c0-0.1,0-0.2,0-0.3l3.8-2.3c0.2-0.1,0.3-0.4,0.2-0.7c-0.1-0.2-0.4-0.3-0.7-0.2c0,0,0,0,0,0l-3.8,2.3c-0.1-0.1-0.3-0.2-0.4-0.3V1.5C10,1.2,9.8,1,9.5,1C9.5,1,9.5,1,9.5,1z"/>
</svg>
