<svg xmlns="http://www.w3.org/2000/svg" width="16" height="16" viewBox="0 0 16 16">
	<path fill="#7F7F7F" d="M3.1,3.1l3.7,9.8H5.6L2,3.1H3.1z"/>
	<path fill="#7F7F7F" d="M14,8c0,0.8-0.1,1.5-0.2,2.2s-0.3,1.1-0.6,1.6c-0.3,0.4-0.6,0.8-1,1c-0.4,0.3-0.9,0.3-1.5,0.3c-0.7,0-1.4-0.2-1.8-0.6c-0.5-0.4-0.9-0.9-1-1.7C7.7,10,7.6,9,7.6,8s0.1-2,0.3-2.7c0.2-0.8,0.5-1.4,1-1.7C9.5,3.2,10.1,3,10.8,3c0.8,0,1.4,0.2,1.8,0.6s0.9,0.9,1,1.7C13.9,6,14,7,14,8z M8.7,8c0,0.9,0.1,1.6,0.2,2.3c0.1,0.7,0.3,1,0.7,1.4c0.3,0.3,0.7,0.4,1.2,0.4c0.5,0,0.9-0.2,1.2-0.4c0.3-0.3,0.5-0.8,0.7-1.4S12.8,9,12.8,8c0-0.9-0.1-1.6-0.2-2.2S12.3,4.7,12,4.4S11.4,4,10.8,4c-0.5,0-0.9,0.2-1.2,0.4S9,5.2,8.9,5.8C8.8,6.4,8.7,7.1,8.7,8z"/>
</svg>
