<svg xmlns="http://www.w3.org/2000/svg" width="16" height="16" viewBox="0 0 16 16">
  <title>actions-null_terminator</title>
  <g>
    <path d="M3.1,3.1l3.7,9.8H5.6L2,3.1Z" fill="#6c707e"/>
    <path d="M14,8a15,15,0,0,1-.2,2.2,3.82,3.82,0,0,1-.6,1.6,3.18,3.18,0,0,1-1,1,2.39,2.39,0,0,1-1.5.3,2.61,2.61,0,0,1-1.8-.6,2.46,2.46,0,0,1-1-1.7A12,12,0,0,1,7.6,8a10.59,10.59,0,0,1,.3-2.7,2.6,2.6,0,0,1,1-1.7A3.29,3.29,0,0,1,10.8,3a2.44,2.44,0,0,1,1.8.6,2.88,2.88,0,0,1,1,1.7A7.32,7.32,0,0,1,14,8ZM8.7,8a15.16,15.16,0,0,0,.2,2.3,2.1,2.1,0,0,0,.7,1.4,1.59,1.59,0,0,0,1.2.4,2.14,2.14,0,0,0,1.2-.4,3.65,3.65,0,0,0,.7-1.4A8,8,0,0,0,12.8,8a12.73,12.73,0,0,0-.2-2.2A2.59,2.59,0,0,0,12,4.4,1.46,1.46,0,0,0,10.8,4a2.14,2.14,0,0,0-1.2.4,2.31,2.31,0,0,0-.7,1.4A12.73,12.73,0,0,0,8.7,8Z" fill="#6c707e"/>
  </g>
</svg>
