<!-- Taken from the Blender project (https://github.com/blender/blender). Licensed under GPL-3.0 -->
<svg xmlns="http://www.w3.org/2000/svg" width="16" height="16" viewBox="0 0 16 16">
	<path fill="#6E6E6E" d="M1.5,1C1.2,1,1,1.2,1,1.5v2C1,3.8,1.2,4,1.5,4h4C5.8,4,6,3.8,6,3.5v-2C6,1.2,5.8,1,5.5,1H1.5z M8.5,7C8.2,7,8,7.2,8,7.5v2C8,9.8,8.2,10,8.5,10h6c0.3,0,0.5-0.2,0.5-0.5v-2C15,7.2,14.8,7,14.5,7H8.5z M8.5,12C8.2,12,8,12.2,8,12.5v2C8,14.8,8.2,15,8.5,15h6c0.3,0,0.5-0.2,0.5-0.5v-2c0-0.3-0.2-0.5-0.5-0.5H8.5z"/>
	<path fill="#B1B1B1" d="M3,5v8.5C3,13.8,3.2,14,3.5,14H7v-1H4V9h3V8H4V5H3z"/>
</svg>
