<svg xmlns="http://www.w3.org/2000/svg" width="16" height="16" viewBox="0 0 16 16">
  <title>actions-uppercase</title>
  <g>
    <path d="m4.28,5.5c.9,0,1.57.19,2.03.57s.69.97.69,1.77v4.54h-1.07l-.29-.96h-.05c-.2.24-.41.45-.62.61s-.46.28-.74.36-.62.12-1.02.12c-.43,0-.81-.07-1.14-.22s-.59-.38-.78-.68-.28-.69-.28-1.16c0-.7.27-1.22.82-1.57s1.37-.54,2.47-.58l1.22-.04v-.35c0-.46-.11-.79-.34-.99s-.55-.3-.96-.3c-.35,0-.7.05-1.03.15s-.66.22-.97.35l-.49-1.01c.35-.17.75-.32,1.19-.43s.9-.16,1.38-.16Zm1.22,3.65l-.91.04c-.75.02-1.28.15-1.58.36s-.45.52-.45.9c0,.33.1.58.31.73s.48.23.83.23c.52,0,.95-.14,1.29-.42s.51-.7.51-1.24v-.59Z" fill="#6c707e"/>
    <polyline points="8.5 7 11.5 4 14.5 7" fill="none" stroke="#3574f0" stroke-linecap="round" stroke-linejoin="round"/>
    <line x1="11.5" y1="4" x2="11.5" y2="13" fill="none" stroke="#3574f0" stroke-miterlimit="10"/>
  </g>
</svg>
