<svg xmlns="http://www.w3.org/2000/svg" width="16" height="16" viewBox="0 0 16 16">
  <title>application</title>
  <g>
    <rect x="1" y="1" width="14" height="14" fill="#2f1818"/>
    <path d="M0,.5v15a.47.47,0,0,0,.5.5h15a.47.47,0,0,0,.5-.5V.5a.47.47,0,0,0-.5-.5H.5A.47.47,0,0,0,0,.5ZM14.5,15H1.5a.47.47,0,0,1-.5-.5V1.5A.47.47,0,0,1,1.5,1h13a.47.47,0,0,1,.5.5v13A.47.47,0,0,1,14.5,15Z" fill="#ae2c31"/>
    <path d="M5.6,4.5a3.08,3.08,0,0,1-.1,1,5.58,5.58,0,0,1-.5.8,1.79,1.79,0,0,1-.7.5A4.25,4.25,0,0,1,3.2,7H1.9V2.1H3.3a3.08,3.08,0,0,1,1,.1,4.23,4.23,0,0,1,.7.5,1.61,1.61,0,0,1,.4.7A3.59,3.59,0,0,1,5.6,4.5Zm-1,.1a1.48,1.48,0,0,0-.1-.7.76.76,0,0,0-.2-.5A.78.78,0,0,0,3.9,3c-.1-.1-.4-.1-.6-.1H2.8V6.2h.4a1.16,1.16,0,0,0,1-.4A1.59,1.59,0,0,0,4.6,4.6Z" fill="#ae2c31"/>
    <path d="M6.4,7V2.1H9.3v.8h-2V4.1H9.2v.7H7.4V6.1h2V7Z" fill="#ae2c31"/>
    <path d="M13.6,6.8c-.2.1-.4.1-.6.2h-.6a2.22,2.22,0,0,1-.9-.1,1.79,1.79,0,0,1-.7-.5,2,2,0,0,1-.4-.8,3.08,3.08,0,0,1-.1-1,3.59,3.59,0,0,1,.2-1.1,5.94,5.94,0,0,1,.4-.8,1.79,1.79,0,0,1,.7-.5,2.92,2.92,0,0,1,.9-.2h.6a.37.37,0,0,1,.3.1c.1,0,.2.1.3.1v.9a1.45,1.45,0,0,1-.7-.2,4.33,4.33,0,0,1-.5-.1,1.27,1.27,0,0,0-.6.1,1.38,1.38,0,0,0-.4.3.76.76,0,0,0-.2.5c0,.2-.1.4-.1.7a1.48,1.48,0,0,0,.1.7c.1.2.1.4.2.5s.2.3.4.3a1.27,1.27,0,0,0,.6.1h.3a.37.37,0,0,0,.3-.1c.1,0,.2-.1.3-.1s.2-.1.3-.1V6.8Z" fill="#ae2c31"/>
    <path d="M2.2,13.8V13H3.4V9.9l-1.1.6L2,9.8,3.6,9h.8v4H5.5v.8Z" fill="#ae2c31"/>
    <path d="M9.5,12.4c0,.2,0,.5-.1.6s-.2.4-.4.5a4.88,4.88,0,0,1-.7.3,3.08,3.08,0,0,1-1,.1H6.2v-.8c.2,0,.3.1.5.1h.6a.75.75,0,0,0,.5-.1c.1,0,.3-.1.4-.1s.2-.1.2-.2.1-.2.1-.3a.37.37,0,0,0-.1-.3.22.22,0,0,0-.2-.2c-.1,0-.2-.1-.4-.1H6.9V11h.5a.75.75,0,0,0,.5-.1c.1,0,.2-.1.3-.2l.2-.2v-.3a.52.52,0,0,0-.2-.4,1.27,1.27,0,0,0-.6-.1,1.27,1.27,0,0,0-.6.1c-.2,0-.4.1-.6.1V9.1c.1,0,.2-.1.3-.1h.9a1.48,1.48,0,0,1,.7.1c.2.1.4.1.5.2a1.38,1.38,0,0,1,.4.3.9.9,0,0,1,.1.5,1.45,1.45,0,0,1-.2.7.92.92,0,0,1-.6.4c.2,0,.3.1.4.1s.2.1.3.2.2.2.2.3A1.49,1.49,0,0,1,9.5,12.4Z" fill="#ae2c31"/>
    <path d="M13.1,13.8l-.3-1H11.1l-.3,1H9.9L11.4,9h1.3l1.4,4.8ZM12,9.9l-.6,2.2h1.3Z" fill="#ae2c31"/>
  </g>
</svg>
