<svg xmlns="http://www.w3.org/2000/svg" width="16" height="16" viewBox="0 0 16 16">
	<rect x="1" y="1" fill="#2F1818" width="14" height="14"/>
	<path fill="#AD2D31" d="M0,0.5v15C0,15.8,0.2,16,0.5,16h15c0.3,0,0.5-0.2,0.5-0.5v-15C16,0.2,15.8,0,15.5,0h-15C0.2,0,0,0.2,0,0.5zM14.5,15h-13C1.2,15,1,14.8,1,14.5v-13C1,1.2,1.2,1,1.5,1h13C14.8,1,15,1.2,15,1.5v13C15,14.8,14.8,15,14.5,15z"/>
	<path fill="#AD2D31" d="M5.6,4.5c0,0.4,0,0.7-0.1,1C5.3,5.8,5.2,6.1,5,6.3C4.8,6.5,4.6,6.7,4.3,6.8C3.9,6.9,3.6,7,3.2,7H1.9V2.1h1.4c0.4,0,0.7,0,1,0.1C4.6,2.4,4.8,2.5,5,2.7c0.2,0.2,0.3,0.4,0.4,0.7C5.5,3.7,5.6,4.1,5.6,4.5z M4.6,4.6c0-0.3,0-0.5-0.1-0.7c0-0.2-0.1-0.4-0.2-0.5C4.2,3.2,4.1,3.1,3.9,3C3.8,2.9,3.5,2.9,3.3,2.9H2.8v3.3h0.4c0.4,0,0.8-0.1,1-0.4C4.5,5.5,4.6,5.1,4.6,4.6z"/>
	<path fill="#AD2D31" d="M6.4,7V2.1h2.9v0.8h-2v1.2h1.9v0.7H7.4v1.3h2V7H6.4z"/>
	<path fill="#AD2D31" d="M13.6,6.8C13.4,6.9,13.2,6.9,13,7C12.8,7,12.6,7,12.4,7C12,7,11.7,7,11.5,6.9c-0.3-0.1-0.5-0.3-0.7-0.5c-0.2-0.2-0.3-0.5-0.4-0.8c-0.1-0.3-0.1-0.6-0.1-1c0-0.4,0.1-0.8,0.2-1.1c0.1-0.3,0.3-0.6,0.4-0.8c0.2-0.2,0.4-0.4,0.7-0.5c0.3-0.1,0.6-0.2,0.9-0.2c0.1,0,0.2,0,0.3,0c0.1,0,0.2,0,0.3,0c0.1,0,0.2,0,0.3,0.1c0.1,0,0.2,0.1,0.3,0.1v0.9C13.4,3.1,13.2,3,13,2.9c-0.2,0-0.4-0.1-0.5-0.1c-0.2,0-0.4,0-0.6,0.1c-0.2,0.1-0.3,0.2-0.4,0.3c-0.1,0.1-0.2,0.3-0.2,0.5c0,0.2-0.1,0.4-0.1,0.7c0,0.3,0,0.5,0.1,0.7s0.1,0.4,0.2,0.5c0.1,0.1,0.2,0.3,0.4,0.3c0.2,0.1,0.4,0.1,0.6,0.1c0.1,0,0.2,0,0.3,0c0.1,0,0.2,0,0.3-0.1c0.1,0,0.2-0.1,0.3-0.1c0.1,0,0.2-0.1,0.3-0.1V6.8z"/>
	<path fill="#AD2D31" d="M2.2,13.8V13h1.2V9.9l-1.1,0.6L2,9.8L3.6,9h0.8V13h1.1v0.8H2.2z"/>
	<path fill="#AD2D31" d="M9.5,12.4c0,0.2,0,0.5-0.1,0.6S9.2,13.4,9,13.5c-0.2,0.1-0.4,0.2-0.7,0.3c-0.3,0.1-0.6,0.1-1,0.1c-0.1,0-0.2,0-0.3,0c-0.1,0-0.2,0-0.3,0c-0.1,0-0.2,0-0.3,0c-0.1,0-0.2,0-0.2,0v-0.8c0.2,0,0.3,0.1,0.5,0.1c0.2,0,0.4,0,0.6,0c0.2,0,0.4,0,0.5-0.1c0.1,0,0.3-0.1,0.4-0.1c0.1-0.1,0.2-0.1,0.2-0.2c0-0.1,0.1-0.2,0.1-0.3c0-0.1,0-0.2-0.1-0.3c0-0.1-0.1-0.2-0.2-0.2s-0.2-0.1-0.4-0.1c-0.1,0-0.3,0-0.5,0H6.9V11h0.5c0.2,0,0.4,0,0.5-0.1c0.1,0,0.2-0.1,0.3-0.2c0.1-0.1,0.1-0.1,0.2-0.2c0-0.1,0-0.2,0-0.3c0-0.2-0.1-0.3-0.2-0.4C8,9.7,7.8,9.7,7.6,9.7c-0.2,0-0.4,0-0.6,0.1c-0.2,0-0.4,0.1-0.6,0.1V9.1c0.1,0,0.2-0.1,0.3-0.1C6.8,9,6.9,9,7,9c0.1,0,0.2,0,0.3,0c0.1,0,0.2,0,0.3,0c0.3,0,0.5,0,0.7,0.1c0.2,0.1,0.4,0.1,0.5,0.2C9,9.4,9.1,9.5,9.2,9.6c0.1,0.2,0.1,0.3,0.1,0.5c0,0.3-0.1,0.5-0.2,0.7c-0.1,0.2-0.3,0.3-0.6,0.4c0.2,0,0.3,0.1,0.4,0.1c0.1,0.1,0.2,0.1,0.3,0.2c0.1,0.1,0.2,0.2,0.2,0.3C9.5,12.1,9.5,12.2,9.5,12.4z"/>
	<path fill="#AD2D31" d="M13.1,13.8l-0.3-1h-1.7l-0.3,1H9.9L11.4,9h1.3l1.4,4.8H13.1z M12,9.9l-0.6,2.2h1.3L12,9.9z"/>
</svg>
