<svg xmlns="http://www.w3.org/2000/svg" width="16" height="16" viewBox="0 0 16 16">
  <title>actions-normals</title>
  <g>
    <path d="M6.8,6H1.5a.47.47,0,0,0-.5.5v8a.47.47,0,0,0,.5.5h8a.47.47,0,0,0,.5-.5v-4a.5.5,0,0,0-1,0H9V14H2V7H6.8a.54.54,0,0,0,.5-.5A.54.54,0,0,0,6.8,6Z" fill="#6c707e"/>
    <path d="M9.5,1a.47.47,0,0,0-.5.5H9V6.1A1.5,1.5,0,0,0,8,7.5,1.54,1.54,0,0,0,9.5,9a1.28,1.28,0,0,0,1-.4l3.8,2.3a.53.53,0,0,0,.7-.2c.2-.3.1-.5-.2-.7h0L11,7.8V7.2l3.8-2.3a.57.57,0,0,0,.2-.7.57.57,0,0,0-.7-.2h0L10.5,6.3c-.1-.1-.3-.2-.4-.3V1.5A.63.63,0,0,0,9.5,1Z" fill="#3574f0"/>
  </g>
</svg>
