<svg xmlns="http://www.w3.org/2000/svg" width="16" height="16" viewBox="0 0 16 16">
  <title>actions-null_terminator</title>
  <g>
    <path d="m4.9,10.92h-1.18L.84,6.19h-.04c.01.16.02.33.03.51,0,.18.02.36.02.55s.01.38.02.57v3.09h-.88v-5.92h1.18l2.87,4.69h.03c0-.14-.01-.29-.02-.47s-.01-.36-.02-.55c0-.19-.01-.37-.01-.55v-3.11h.88v5.92Z" fill="#6c707e"/>
    <path d="m11.05,5v3.83c0,.41-.09.78-.26,1.11-.17.33-.43.59-.78.78-.35.19-.79.29-1.31.29-.75,0-1.32-.2-1.72-.6s-.59-.93-.59-1.59v-3.81h.97v3.73c0,.49.11.86.35,1.09.23.23.57.35,1.03.35.31,0,.57-.06.77-.17s.35-.28.44-.49c.1-.22.14-.48.14-.79v-3.72h.96Z" fill="#6c707e"/>
    <path d="m12.54,10.92v-5.92h.96v5.09h2.49v.83h-3.46Z" fill="#6c707e"/>
  </g>
</svg>
