<svg xmlns="http://www.w3.org/2000/svg" width="16" height="16" viewBox="0 0 16 16">
  <title>actions-save</title>
  <g>
    <path d="M3.5,13.5h9a1,1,0,0,0,1-1V4.91a1,1,0,0,0-.29-.7L11.79,2.79a1,1,0,0,0-.7-.29H3.5a1,1,0,0,0-1,1v9A1,1,0,0,0,3.5,13.5Z" fill="none" stroke="#6c707e" stroke-miterlimit="10"/>
    <path d="M4.5,13V10A.5.5,0,0,1,5,9.5h6a.5.5,0,0,1,.5.5v3" fill="#ebecf0" stroke="#6c707e" stroke-miterlimit="10"/>
    <path d="M5.5,3V5a.5.5,0,0,0,.5.5h4a.5.5,0,0,0,.5-.5V3" fill="#ebecf0" stroke="#6c707e" stroke-miterlimit="10"/>
  </g>
</svg>
