<svg xmlns="http://www.w3.org/2000/svg" width="16" height="16" viewBox="0 0 16 16">
  <title>actions-tab_close_uninitialized</title>
  <g>
    <g>
      <line x1="11.5" y1="10" x2="11.5" y2="14" fill="none" stroke="#db5860"/>
      <line x1="13.5" y1="10" x2="13.5" y2="14" fill="none" stroke="#db5860"/>
    </g>
    <g>
      <polygon points="4 4 4 6 14 6 14 4 12 4 12 2 2 2 2 4 4 4" fill="#ebecf0"/>
      <path d="M10,14.5H4.5a1,1,0,0,1-1-1v-9a1,1,0,0,1,1-1h9a1,1,0,0,1,1,1V9" fill="none" stroke="#6c707e"/>
      <line x1="14" y1="6.5" x2="4" y2="6.5" fill="none" stroke="#6c707e"/>
      <line x1="2" y1="4.5" x2="4" y2="4.5" fill="none" stroke="#6c707e"/>
      <path d="M3,12.5H2.5a1,1,0,0,1-1-1v-9a1,1,0,0,1,1-1h9a1,1,0,0,1,1,1V4" fill="none" stroke="#6c707e"/>
    </g>
  </g>
</svg>
