<svg xmlns="http://www.w3.org/2000/svg" width="16" height="16" viewBox="0 0 16 16">
  <title>actions-tab_close_others</title>
  <g>
    <g>
      <polygon points="4 4 4 6 14 6 14 4 12 4 12 2 2 2 2 4 4 4" fill="#ebecf0"/>
      <path d="M9,14.5H4.5a1,1,0,0,1-1-1v-9a1,1,0,0,1,1-1h9a1,1,0,0,1,1,1V10" fill="none" stroke="#6c707e"/>
      <line x1="14" y1="6.5" x2="4" y2="6.5" fill="none" stroke="#6c707e"/>
      <line x1="2" y1="4.5" x2="4" y2="4.5" fill="none" stroke="#6c707e"/>
      <path d="M3,12.5H2.5a1,1,0,0,1-1-1v-9a1,1,0,0,1,1-1h9a1,1,0,0,1,1,1V4" fill="none" stroke="#6c707e"/>
    </g>
    <g>
      <polyline points="11.5 14.5 9.5 12.5 11.5 10.5" fill="none" stroke="#db5860"/>
      <polyline points="12.5 10.5 14.5 12.5 12.5 14.5" fill="none" stroke="#db5860"/>
    </g>
  </g>
</svg>
